<svg width="15" height="16" viewBox="0 0 15 16" fill="none" xmlns="http://www.w3.org/2000/svg">
<g clip-path="url(#clip0_1_332)">
<path d="M1.875 2.375V15.0312C1.87494 15.1126 1.89608 15.1927 1.93634 15.2634C1.97659 15.3342 2.03458 15.3932 2.10459 15.4347C2.17459 15.4763 2.25421 15.4989 2.3356 15.5003C2.41699 15.5017 2.49734 15.4819 2.56875 15.4428L7.5 12.7522L12.4313 15.4428C12.5027 15.4819 12.583 15.5017 12.6644 15.5003C12.7458 15.4989 12.8254 15.4763 12.8954 15.4347C12.9654 15.3932 13.0234 15.3342 13.0637 15.2634C13.1039 15.1927 13.1251 15.1126 13.125 15.0312V2.375C13.125 1.87772 12.9275 1.40081 12.5758 1.04917C12.2242 0.697544 11.7473 0.5 11.25 0.5H3.75C3.25272 0.5 2.77581 0.697544 2.42417 1.04917C2.07254 1.40081 1.875 1.87772 1.875 2.375Z" fill="url(#paint0_linear_1_332)"/>
</g>
<defs>
<linearGradient id="paint0_linear_1_332" x1="7.5" y1="0.5" x2="7.5" y2="15.5003" gradientUnits="userSpaceOnUse">
<stop stop-color="#5A8FFF"/>
<stop offset="1" stop-color="#003094"/>
</linearGradient>
<clipPath id="clip0_1_332">
<rect width="15" height="15" fill="white" transform="translate(0 0.5)"/>
</clipPath>
</defs>
</svg>
